<svg xmlns="http://www.w3.org/2000/svg" xmlns:xlink="http://www.w3.org/1999/xlink" width="1080" zoomAndPan="magnify" viewBox="0 0 810 809.999993" height="1080" preserveAspectRatio="xMidYMid meet" version="1.0"><defs><clipPath id="id1"><path d="M 416 452 L 722 452 L 722 731.960938 L 416 731.960938 Z M 416 452 " clip-rule="nonzero"/></clipPath><clipPath id="id2"><path d="M 88 452 L 394 452 L 394 731.960938 L 88 731.960938 Z M 88 452 " clip-rule="nonzero"/></clipPath></defs><path fill="#5e6699" d="M 763.105469 78.089844 L 591.265625 78.089844 C 579.078125 78.089844 567.191406 79.367188 555.722656 81.785156 C 553.578125 82.234375 551.445312 82.722656 549.328125 83.257812 C 546.246094 84.035156 543.1875 84.878906 540.164062 85.820312 C 538.820312 86.238281 537.484375 86.675781 536.152344 87.125 C 534.3125 87.746094 532.5 88.40625 530.691406 89.089844 C 529.105469 89.683594 527.53125 90.308594 525.960938 90.949219 C 524.867188 91.398438 523.785156 91.855469 522.703125 92.332031 C 521.300781 92.941406 519.914062 93.570312 518.527344 94.210938 C 516.019531 95.390625 513.539062 96.625 511.097656 97.917969 C 507.601562 99.757812 504.179688 101.722656 500.839844 103.792969 C 499.640625 104.535156 498.449219 105.296875 497.273438 106.0625 C 495.425781 107.273438 493.59375 108.511719 491.792969 109.792969 C 488.921875 111.832031 486.128906 113.964844 483.394531 116.171875 C 482.011719 117.292969 480.640625 118.421875 479.296875 119.582031 C 478.09375 120.613281 476.902344 121.660156 475.722656 122.730469 C 472.699219 125.476562 469.769531 128.34375 466.949219 131.300781 C 466.855469 131.394531 466.769531 131.484375 466.683594 131.578125 C 463.144531 135.296875 459.773438 139.183594 456.585938 143.210938 C 455.328125 144.785156 454.101562 146.394531 452.90625 148.015625 C 450.046875 151.894531 447.347656 155.890625 444.8125 160.007812 C 442.972656 162.996094 441.222656 166.046875 439.570312 169.152344 C 438.046875 171.996094 436.605469 174.890625 435.25 177.828125 C 434.707031 179 434.175781 180.175781 433.667969 181.359375 C 433.191406 182.4375 432.734375 183.523438 432.285156 184.617188 C 431.734375 185.960938 431.199219 187.316406 430.675781 188.671875 C 428.238281 195.046875 426.179688 201.601562 424.507812 208.3125 C 424.03125 210.230469 423.582031 212.175781 423.171875 214.121094 C 422.867188 215.566406 422.574219 217.015625 422.308594 218.476562 C 420.425781 228.667969 419.425781 239.175781 419.425781 249.914062 L 419.425781 421.738281 L 591.265625 421.738281 C 595.832031 421.738281 600.367188 421.554688 604.839844 421.203125 C 612.304688 420.621094 619.640625 419.554688 626.804688 418.046875 C 628.957031 417.597656 631.085938 417.101562 633.207031 416.570312 C 636.289062 415.796875 639.347656 414.949219 642.363281 414.011719 C 643.714844 413.59375 645.050781 413.15625 646.382812 412.707031 C 648.214844 412.085938 650.035156 411.421875 651.84375 410.742188 C 653.429688 410.144531 655.003906 409.523438 656.566406 408.882812 C 657.660156 408.433594 658.75 407.96875 659.828125 407.5 C 661.234375 406.890625 662.621094 406.261719 664 405.613281 C 666.28125 404.546875 668.539062 403.429688 670.769531 402.273438 C 674.785156 400.167969 678.710938 397.910156 682.535156 395.507812 C 683.449219 394.933594 684.355469 394.359375 685.257812 393.761719 C 687.109375 392.550781 688.941406 391.3125 690.742188 390.035156 C 694.109375 387.640625 697.386719 385.125 700.570312 382.5 C 702.695312 380.753906 704.773438 378.945312 706.804688 377.101562 C 712.210938 372.191406 717.300781 366.9375 722.046875 361.382812 C 723.9375 359.160156 725.777344 356.890625 727.566406 354.566406 C 732.914062 347.613281 737.742188 340.234375 741.992188 332.5 C 754.035156 310.570312 761.429688 285.734375 762.851562 259.304688 C 763.023438 256.195312 763.105469 253.066406 763.105469 249.914062 L 763.105469 136.046875 C 763.105469 92.035156 781.566406 78.089844 809.964844 78.089844 L 763.105469 78.089844 " fill-opacity="1" fill-rule="nonzero"/><g clip-path="url(#id1)"><path fill="#d6a5c3" d="M 623.035156 715.214844 C 666.773438 691.574219 696.488281 645.3125 696.488281 592.109375 C 696.488281 514.863281 633.867188 452.246094 556.617188 452.246094 L 416.738281 452.246094 L 416.738281 592.109375 C 416.738281 669.351562 479.363281 731.964844 556.617188 731.964844 L 721.875 731.964844 C 679.910156 731.964844 647.546875 726.074219 623.035156 715.214844 " fill-opacity="1" fill-rule="nonzero"/></g><g clip-path="url(#id2)"><path fill="#5e6699" d="M 292.035156 452.246094 L 253.351562 452.246094 C 176.101562 452.246094 113.476562 514.863281 113.476562 592.109375 C 113.476562 645.3125 143.191406 691.574219 186.933594 715.214844 C 162.421875 726.074219 130.054688 731.964844 88.089844 731.964844 L 253.351562 731.964844 C 330.605469 731.964844 393.222656 669.351562 393.222656 592.109375 L 393.222656 452.246094 L 292.035156 452.246094 " fill-opacity="1" fill-rule="nonzero"/></g><path fill="#d6a5c3" d="M 388.558594 223.75 C 388.121094 220.90625 387.617188 218.078125 387.050781 215.289062 C 386.472656 212.488281 385.839844 209.722656 385.128906 206.976562 C 384.78125 205.601562 384.410156 204.238281 384.019531 202.875 C 382.753906 198.425781 381.304688 194.050781 379.703125 189.757812 C 378.027344 185.292969 376.175781 180.910156 374.15625 176.628906 C 373.058594 174.304688 371.914062 172.015625 370.714844 169.753906 C 368.871094 166.261719 366.910156 162.84375 364.839844 159.496094 C 363.65625 157.589844 362.445312 155.707031 361.191406 153.847656 C 360.417969 152.707031 359.632812 151.570312 358.835938 150.453125 C 356.796875 147.578125 354.660156 144.785156 352.457031 142.054688 C 351.207031 140.503906 349.9375 138.976562 348.636719 137.46875 C 347.738281 136.429688 346.824219 135.402344 345.898438 134.382812 C 344.050781 132.351562 342.152344 130.359375 340.207031 128.414062 C 338.269531 126.476562 336.277344 124.578125 334.246094 122.730469 C 331.1875 119.957031 328.035156 117.292969 324.792969 114.738281 C 321.542969 112.191406 318.203125 109.753906 314.773438 107.4375 C 287.347656 88.910156 254.285156 78.089844 218.699219 78.089844 C 218.695312 78.089844 218.695312 78.089844 218.695312 78.089844 L -0.00390625 78.089844 C 28.402344 78.089844 46.859375 92.035156 46.859375 136.046875 L 46.859375 249.914062 C 46.859375 252.878906 46.9375 255.824219 47.082031 258.757812 C 47.230469 261.6875 47.453125 264.59375 47.746094 267.484375 C 47.890625 268.925781 48.054688 270.363281 48.242188 271.800781 C 48.824219 276.410156 49.605469 280.964844 50.550781 285.449219 C 51 287.601562 51.492188 289.730469 52.019531 291.84375 C 53.621094 298.207031 55.574219 304.429688 57.851562 310.484375 C 58.453125 312.070312 59.074219 313.648438 59.71875 315.207031 C 60.167969 316.308594 60.625 317.390625 61.09375 318.46875 C 61.707031 319.875 62.335938 321.261719 62.980469 322.640625 C 63.546875 323.855469 64.132812 325.0625 64.726562 326.257812 C 67.121094 331.082031 69.738281 335.78125 72.5625 340.328125 C 73.496094 341.835938 74.449219 343.324219 75.429688 344.800781 C 78.855469 349.96875 82.554688 354.9375 86.511719 359.695312 C 88.035156 361.53125 89.597656 363.328125 91.191406 365.097656 C 93.136719 367.253906 95.136719 369.359375 97.1875 371.410156 C 98.226562 372.449219 99.285156 373.472656 100.351562 374.484375 C 102.15625 376.207031 104.011719 377.886719 105.898438 379.527344 C 106.175781 379.773438 106.453125 380.011719 106.730469 380.25 C 108.453125 381.726562 110.207031 383.175781 111.980469 384.582031 C 113.5625 385.839844 115.164062 387.058594 116.789062 388.257812 C 118.367188 389.421875 119.960938 390.558594 121.582031 391.671875 C 122.164062 392.066406 122.746094 392.464844 123.335938 392.863281 C 125.128906 394.058594 126.941406 395.222656 128.78125 396.355469 C 131.773438 398.195312 134.824219 399.941406 137.929688 401.597656 C 141.136719 403.3125 144.40625 404.933594 147.730469 406.441406 C 147.972656 406.554688 148.21875 406.660156 148.457031 406.765625 C 150.609375 407.730469 152.785156 408.652344 154.984375 409.53125 C 155.53125 409.75 156.082031 409.960938 156.628906 410.171875 C 163.472656 412.828125 170.535156 415.050781 177.773438 416.816406 C 179.257812 417.179688 180.746094 417.523438 182.25 417.847656 C 193.996094 420.382812 206.191406 421.738281 218.699219 421.738281 L 390.535156 421.738281 L 390.535156 249.914062 C 390.535156 241.015625 389.863281 232.28125 388.558594 223.75 " fill-opacity="1" fill-rule="nonzero"/></svg>