<?xml version="1.0" encoding="UTF-8"?><svg xmlns="http://www.w3.org/2000/svg" xmlns:xlink="http://www.w3.org/1999/xlink" width="96" zoomAndPan="magnify" viewBox="0 0 96 95.999999" height="95.999999" preserveAspectRatio="xMidYMid meet" version="1.0"><defs><clipPath id="clip-0"><path d="M 49 9.238281 L 96 9.238281 L 96 50 L 49 50 Z M 49 9.238281 " clip-rule="nonzero"/></clipPath><clipPath id="clip-1"><path d="M 49 53 L 86 53 L 86 86.488281 L 49 86.488281 Z M 49 53 " clip-rule="nonzero"/></clipPath><clipPath id="clip-2"><path d="M 10 53 L 47 53 L 47 86.488281 L 10 86.488281 Z M 10 53 " clip-rule="nonzero"/></clipPath><clipPath id="clip-3"><path d="M 0 9.238281 L 47 9.238281 L 47 50 L 0 50 Z M 0 9.238281 " clip-rule="nonzero"/></clipPath></defs><g clip-path="url(#clip-0)"><path fill="rgb(36.859131%, 39.99939%, 59.999084%)" d="M 90.441406 9.253906 L 70.074219 9.253906 C 68.632812 9.253906 67.222656 9.40625 65.863281 9.691406 C 65.609375 9.746094 65.355469 9.800781 65.105469 9.867188 C 64.738281 9.957031 64.378906 10.058594 64.019531 10.167969 C 63.859375 10.21875 63.703125 10.269531 63.542969 10.320312 C 63.324219 10.394531 63.109375 10.472656 62.898438 10.554688 C 62.707031 10.625 62.523438 10.699219 62.335938 10.773438 C 62.207031 10.828125 62.078125 10.882812 61.949219 10.9375 C 61.785156 11.007812 61.621094 11.082031 61.457031 11.160156 C 61.15625 11.296875 60.863281 11.445312 60.574219 11.597656 C 60.160156 11.8125 59.753906 12.046875 59.359375 12.292969 C 59.214844 12.378906 59.074219 12.46875 58.9375 12.558594 C 58.71875 12.703125 58.5 12.847656 58.285156 13 C 57.945312 13.242188 57.613281 13.492188 57.292969 13.753906 C 57.128906 13.886719 56.964844 14.019531 56.804688 14.15625 C 56.664062 14.277344 56.523438 14.402344 56.382812 14.527344 C 56.023438 14.851562 55.675781 15.191406 55.34375 15.539062 C 55.332031 15.550781 55.320312 15.5625 55.3125 15.574219 C 54.890625 16.011719 54.492188 16.472656 54.113281 16.945312 C 53.964844 17.132812 53.820312 17.324219 53.675781 17.515625 C 53.339844 17.972656 53.019531 18.445312 52.71875 18.929688 C 52.5 19.285156 52.292969 19.644531 52.097656 20.011719 C 51.917969 20.347656 51.746094 20.6875 51.585938 21.035156 C 51.519531 21.175781 51.457031 21.3125 51.398438 21.453125 C 51.339844 21.582031 51.285156 21.707031 51.234375 21.839844 C 51.167969 21.996094 51.105469 22.15625 51.042969 22.316406 C 50.753906 23.070312 50.511719 23.84375 50.3125 24.636719 C 50.253906 24.863281 50.203125 25.09375 50.152344 25.324219 C 50.117188 25.492188 50.082031 25.664062 50.050781 25.835938 C 49.828125 27.042969 49.710938 28.28125 49.710938 29.550781 L 49.710938 49.847656 L 70.074219 49.847656 C 70.617188 49.847656 71.15625 49.824219 71.683594 49.785156 C 72.570312 49.714844 73.4375 49.589844 74.289062 49.410156 C 74.542969 49.359375 74.796875 49.296875 75.046875 49.234375 C 75.410156 49.144531 75.773438 49.042969 76.132812 48.933594 C 76.292969 48.882812 76.449219 48.832031 76.609375 48.78125 C 76.824219 48.707031 77.042969 48.628906 77.253906 48.546875 C 77.445312 48.476562 77.628906 48.402344 77.816406 48.328125 C 77.945312 48.273438 78.074219 48.21875 78.203125 48.164062 C 78.367188 48.09375 78.53125 48.019531 78.695312 47.941406 C 78.964844 47.816406 79.234375 47.683594 79.5 47.546875 C 79.976562 47.296875 80.441406 47.03125 80.894531 46.75 C 81 46.679688 81.109375 46.613281 81.214844 46.542969 C 81.433594 46.398438 81.652344 46.253906 81.867188 46.101562 C 82.265625 45.820312 82.652344 45.523438 83.03125 45.210938 C 83.28125 45.003906 83.527344 44.792969 83.769531 44.574219 C 84.410156 43.992188 85.011719 43.375 85.574219 42.71875 C 85.800781 42.453125 86.019531 42.1875 86.230469 41.914062 C 86.863281 41.089844 87.4375 40.21875 87.941406 39.304688 C 89.367188 36.714844 90.242188 33.78125 90.410156 30.660156 C 90.433594 30.292969 90.441406 29.921875 90.441406 29.550781 L 90.441406 16.101562 C 90.441406 10.902344 92.628906 9.253906 95.996094 9.253906 L 90.441406 9.253906 " fill-opacity="1" fill-rule="nonzero"/></g><g clip-path="url(#clip-1)"><path fill="rgb(83.918762%, 64.709473%, 76.469421%)" d="M 73.839844 84.511719 C 79.023438 81.71875 82.546875 76.253906 82.546875 69.96875 C 82.546875 60.847656 75.125 53.449219 65.96875 53.449219 L 49.390625 53.449219 L 49.390625 69.96875 C 49.390625 79.09375 56.8125 86.488281 65.96875 86.488281 L 85.554688 86.488281 C 80.582031 86.488281 76.746094 85.792969 73.839844 84.511719 " fill-opacity="1" fill-rule="nonzero"/></g><g clip-path="url(#clip-2)"><path fill="rgb(36.859131%, 39.99939%, 59.999084%)" d="M 34.613281 53.449219 L 30.027344 53.449219 C 20.871094 53.449219 13.449219 60.847656 13.449219 69.96875 C 13.449219 76.253906 16.96875 81.71875 22.15625 84.511719 C 19.25 85.792969 15.414062 86.488281 10.441406 86.488281 L 30.027344 86.488281 C 39.183594 86.488281 46.605469 79.09375 46.605469 69.96875 L 46.605469 53.449219 L 34.613281 53.449219 " fill-opacity="1" fill-rule="nonzero"/></g><g clip-path="url(#clip-3)"><path fill="rgb(83.918762%, 64.709473%, 76.469421%)" d="M 46.050781 26.460938 C 46 26.125 45.941406 25.789062 45.871094 25.460938 C 45.804688 25.128906 45.730469 24.804688 45.644531 24.480469 C 45.601562 24.316406 45.558594 24.15625 45.511719 23.996094 C 45.363281 23.46875 45.191406 22.953125 45 22.445312 C 44.804688 21.917969 44.582031 21.398438 44.34375 20.894531 C 44.214844 20.621094 44.078125 20.351562 43.9375 20.082031 C 43.71875 19.667969 43.484375 19.265625 43.238281 18.871094 C 43.101562 18.644531 42.957031 18.421875 42.808594 18.203125 C 42.714844 18.070312 42.621094 17.933594 42.527344 17.800781 C 42.289062 17.464844 42.035156 17.132812 41.773438 16.808594 C 41.625 16.628906 41.472656 16.445312 41.320312 16.269531 C 41.214844 16.144531 41.105469 16.023438 40.996094 15.90625 C 40.777344 15.664062 40.550781 15.429688 40.320312 15.199219 C 40.089844 14.96875 39.855469 14.746094 39.613281 14.527344 C 39.25 14.199219 38.878906 13.886719 38.492188 13.582031 C 38.109375 13.28125 37.710938 12.996094 37.304688 12.722656 C 34.054688 10.535156 30.136719 9.253906 25.921875 9.253906 C 25.917969 9.253906 25.917969 9.253906 25.917969 9.253906 L 0 9.253906 C 3.367188 9.253906 5.554688 10.902344 5.554688 16.101562 L 5.554688 29.550781 C 5.554688 29.902344 5.5625 30.25 5.582031 30.59375 C 5.597656 30.941406 5.625 31.285156 5.660156 31.625 C 5.675781 31.796875 5.695312 31.964844 5.71875 32.136719 C 5.785156 32.679688 5.878906 33.21875 5.992188 33.75 C 6.042969 34.003906 6.101562 34.253906 6.164062 34.503906 C 6.355469 35.253906 6.585938 35.988281 6.855469 36.707031 C 6.929688 36.894531 7 37.078125 7.078125 37.261719 C 7.132812 37.394531 7.183594 37.519531 7.242188 37.648438 C 7.3125 37.8125 7.386719 37.976562 7.464844 38.140625 C 7.53125 38.285156 7.601562 38.425781 7.671875 38.570312 C 7.957031 39.136719 8.265625 39.695312 8.601562 40.230469 C 8.710938 40.410156 8.824219 40.585938 8.941406 40.757812 C 9.347656 41.371094 9.785156 41.957031 10.253906 42.519531 C 10.433594 42.734375 10.617188 42.949219 10.808594 43.15625 C 11.039062 43.410156 11.277344 43.660156 11.519531 43.902344 C 11.640625 44.023438 11.765625 44.144531 11.894531 44.265625 C 12.109375 44.46875 12.328125 44.667969 12.550781 44.859375 C 12.582031 44.890625 12.617188 44.917969 12.648438 44.945312 C 12.855469 45.121094 13.0625 45.292969 13.273438 45.457031 C 13.460938 45.605469 13.648438 45.75 13.84375 45.890625 C 14.027344 46.027344 14.21875 46.164062 14.410156 46.296875 C 14.480469 46.34375 14.546875 46.390625 14.617188 46.4375 C 14.832031 46.578125 15.046875 46.714844 15.261719 46.847656 C 15.617188 47.066406 15.980469 47.273438 16.347656 47.46875 C 16.726562 47.667969 17.113281 47.863281 17.507812 48.039062 C 17.539062 48.054688 17.566406 48.066406 17.59375 48.078125 C 17.851562 48.191406 18.109375 48.300781 18.367188 48.40625 C 18.433594 48.429688 18.5 48.457031 18.5625 48.480469 C 19.375 48.792969 20.210938 49.054688 21.070312 49.265625 C 21.246094 49.308594 21.421875 49.347656 21.601562 49.386719 C 22.992188 49.6875 24.4375 49.847656 25.921875 49.847656 L 46.285156 49.847656 L 46.285156 29.550781 C 46.285156 28.5 46.207031 27.46875 46.050781 26.460938 " fill-opacity="1" fill-rule="nonzero"/></g></svg>