<svg xmlns="http://www.w3.org/2000/svg" xmlns:xlink="http://www.w3.org/1999/xlink" width="500" zoomAndPan="magnify" viewBox="0 0 375 374.999991" height="500" preserveAspectRatio="xMidYMid meet" version="1.0"><defs><clipPath id="id1"><path d="M 192 65.71875 L 338.1875 65.71875 L 338.1875 194 L 192 194 Z M 192 65.71875 " clip-rule="nonzero"/></clipPath><clipPath id="id2"><path d="M 191 205 L 306 205 L 306 309.46875 L 191 309.46875 Z M 191 205 " clip-rule="nonzero"/></clipPath><clipPath id="id3"><path d="M 69 205 L 184 205 L 184 309.46875 L 69 309.46875 Z M 69 205 " clip-rule="nonzero"/></clipPath><clipPath id="id4"><path d="M 36.6875 65.71875 L 183 65.71875 L 183 194 L 36.6875 194 Z M 36.6875 65.71875 " clip-rule="nonzero"/></clipPath></defs><g clip-path="url(#id1)"><path fill="#d6a5c3" d="M 320.730469 65.765625 L 256.769531 65.765625 C 252.234375 65.765625 247.808594 66.242188 243.539062 67.140625 C 242.742188 67.308594 241.949219 67.492188 241.160156 67.691406 C 240.011719 67.980469 238.875 68.296875 237.75 68.644531 C 237.25 68.800781 236.75 68.964844 236.253906 69.132812 C 235.570312 69.363281 234.894531 69.609375 234.222656 69.863281 C 233.632812 70.085938 233.046875 70.316406 232.460938 70.558594 C 232.054688 70.726562 231.652344 70.894531 231.25 71.074219 C 230.726562 71.300781 230.210938 71.535156 229.695312 71.773438 C 228.761719 72.210938 227.839844 72.671875 226.929688 73.15625 C 225.628906 73.839844 224.355469 74.574219 223.109375 75.34375 C 222.664062 75.621094 222.222656 75.90625 221.785156 76.191406 C 221.097656 76.640625 220.414062 77.101562 219.742188 77.582031 C 218.675781 78.339844 217.636719 79.136719 216.617188 79.960938 C 216.101562 80.375 215.59375 80.796875 215.09375 81.230469 C 214.644531 81.613281 214.203125 82.003906 213.761719 82.402344 C 212.636719 83.425781 211.546875 84.496094 210.496094 85.597656 C 210.460938 85.632812 210.429688 85.667969 210.398438 85.699219 C 209.078125 87.085938 207.824219 88.535156 206.640625 90.035156 C 206.171875 90.625 205.714844 91.222656 205.269531 91.828125 C 204.203125 93.273438 203.199219 94.761719 202.257812 96.296875 C 201.570312 97.410156 200.921875 98.546875 200.304688 99.703125 C 199.738281 100.765625 199.203125 101.84375 198.695312 102.9375 C 198.496094 103.375 198.296875 103.8125 198.109375 104.253906 C 197.929688 104.65625 197.761719 105.0625 197.59375 105.46875 C 197.390625 105.96875 197.1875 106.476562 196.996094 106.980469 C 196.089844 109.355469 195.320312 111.800781 194.699219 114.300781 C 194.519531 115.015625 194.355469 115.742188 194.199219 116.464844 C 194.085938 117.003906 193.980469 117.542969 193.882812 118.089844 C 193.179688 121.886719 192.808594 125.804688 192.808594 129.804688 L 192.808594 193.847656 L 256.769531 193.847656 C 258.46875 193.847656 260.15625 193.777344 261.824219 193.648438 C 264.601562 193.429688 267.332031 193.035156 270 192.472656 C 270.800781 192.304688 271.59375 192.117188 272.382812 191.921875 C 273.527344 191.632812 274.667969 191.316406 275.789062 190.964844 C 276.292969 190.8125 276.789062 190.648438 277.285156 190.480469 C 277.96875 190.25 278.644531 190.003906 279.316406 189.75 C 279.910156 189.527344 280.496094 189.292969 281.078125 189.054688 C 281.484375 188.886719 281.890625 188.714844 282.292969 188.539062 C 282.8125 188.3125 283.332031 188.078125 283.84375 187.835938 C 284.691406 187.441406 285.53125 187.023438 286.363281 186.589844 C 287.859375 185.808594 289.320312 184.964844 290.742188 184.070312 C 291.082031 183.855469 291.421875 183.640625 291.753906 183.417969 C 292.445312 182.96875 293.128906 182.507812 293.796875 182.03125 C 295.050781 181.136719 296.269531 180.199219 297.457031 179.222656 C 298.246094 178.570312 299.019531 177.898438 299.777344 177.210938 C 301.789062 175.378906 303.683594 173.421875 305.449219 171.351562 C 306.152344 170.523438 306.839844 169.675781 307.503906 168.8125 C 309.492188 166.21875 311.292969 163.46875 312.875 160.585938 C 317.355469 152.414062 320.109375 143.15625 320.636719 133.304688 C 320.703125 132.148438 320.730469 130.980469 320.730469 129.804688 L 320.730469 87.367188 C 320.730469 70.960938 327.605469 65.765625 338.175781 65.765625 L 320.730469 65.765625 " fill-opacity="1" fill-rule="nonzero"/></g><g clip-path="url(#id2)"><path fill="#d6a5c3" d="M 268.59375 303.230469 C 284.875 294.417969 295.9375 277.175781 295.9375 257.34375 C 295.9375 228.554688 272.628906 205.21875 243.871094 205.21875 L 191.808594 205.21875 L 191.808594 257.34375 C 191.808594 286.136719 215.117188 309.472656 243.871094 309.472656 L 305.386719 309.472656 C 289.765625 309.472656 277.71875 307.277344 268.59375 303.230469 " fill-opacity="1" fill-rule="nonzero"/></g><g clip-path="url(#id3)"><path fill="#d6a5c3" d="M 145.390625 205.21875 L 130.992188 205.21875 C 102.238281 205.21875 78.925781 228.554688 78.925781 257.34375 C 78.925781 277.175781 89.984375 294.417969 106.269531 303.230469 C 97.144531 307.277344 85.097656 309.472656 69.476562 309.472656 L 130.992188 309.472656 C 159.746094 309.472656 183.054688 286.136719 183.054688 257.34375 L 183.054688 205.21875 L 145.390625 205.21875 " fill-opacity="1" fill-rule="nonzero"/></g><g clip-path="url(#id4)"><path fill="#d6a5c3" d="M 181.316406 120.054688 C 181.15625 118.992188 180.96875 117.941406 180.757812 116.898438 C 180.542969 115.855469 180.304688 114.824219 180.042969 113.800781 C 179.910156 113.289062 179.773438 112.78125 179.628906 112.273438 C 179.15625 110.617188 178.617188 108.984375 178.023438 107.386719 C 177.398438 105.71875 176.707031 104.085938 175.957031 102.492188 C 175.546875 101.625 175.121094 100.773438 174.675781 99.929688 C 173.988281 98.625 173.261719 97.355469 172.488281 96.105469 C 172.046875 95.394531 171.597656 94.691406 171.132812 94 C 170.84375 93.574219 170.550781 93.152344 170.253906 92.734375 C 169.496094 91.664062 168.699219 90.625 167.878906 89.605469 C 167.414062 89.027344 166.941406 88.457031 166.457031 87.894531 C 166.125 87.507812 165.785156 87.125 165.4375 86.746094 C 164.75 85.988281 164.042969 85.246094 163.320312 84.523438 C 162.597656 83.800781 161.855469 83.089844 161.101562 82.402344 C 159.960938 81.371094 158.789062 80.375 157.582031 79.425781 C 156.375 78.472656 155.128906 77.566406 153.855469 76.703125 C 143.644531 69.796875 131.339844 65.765625 118.09375 65.765625 C 118.089844 65.765625 118.089844 65.765625 118.089844 65.765625 L 36.6875 65.765625 C 47.257812 65.765625 54.128906 70.960938 54.128906 87.367188 L 54.128906 129.804688 C 54.128906 130.910156 54.160156 132.007812 54.214844 133.101562 C 54.265625 134.195312 54.351562 135.277344 54.460938 136.355469 C 54.511719 136.890625 54.574219 137.425781 54.644531 137.960938 C 54.859375 139.679688 55.152344 141.378906 55.503906 143.050781 C 55.671875 143.851562 55.855469 144.644531 56.050781 145.433594 C 56.648438 147.804688 57.375 150.125 58.222656 152.378906 C 58.445312 152.972656 58.675781 153.558594 58.914062 154.140625 C 59.082031 154.550781 59.253906 154.957031 59.429688 155.359375 C 59.65625 155.878906 59.890625 156.398438 60.128906 156.910156 C 60.34375 157.363281 60.558594 157.8125 60.78125 158.261719 C 61.671875 160.058594 62.644531 161.808594 63.695312 163.503906 C 64.042969 164.066406 64.398438 164.621094 64.765625 165.171875 C 66.039062 167.097656 67.417969 168.949219 68.890625 170.722656 C 69.457031 171.40625 70.039062 172.078125 70.632812 172.734375 C 71.355469 173.539062 72.097656 174.324219 72.863281 175.089844 C 73.25 175.476562 73.644531 175.859375 74.039062 176.234375 C 74.714844 176.875 75.402344 177.503906 76.105469 178.113281 C 76.207031 178.207031 76.3125 178.292969 76.414062 178.382812 C 77.054688 178.933594 77.707031 179.472656 78.367188 180 C 78.957031 180.46875 79.554688 180.921875 80.160156 181.367188 C 80.746094 181.800781 81.339844 182.226562 81.941406 182.640625 C 82.160156 182.789062 82.375 182.9375 82.597656 183.085938 C 83.261719 183.53125 83.9375 183.964844 84.625 184.386719 C 85.738281 185.070312 86.871094 185.722656 88.027344 186.339844 C 89.222656 186.976562 90.4375 187.582031 91.675781 188.144531 C 91.765625 188.1875 91.859375 188.226562 91.945312 188.265625 C 92.746094 188.625 93.558594 188.96875 94.375 189.296875 C 94.582031 189.378906 94.785156 189.457031 94.988281 189.535156 C 97.535156 190.523438 100.164062 191.355469 102.859375 192.011719 C 103.410156 192.148438 103.964844 192.277344 104.523438 192.398438 C 108.898438 193.339844 113.4375 193.847656 118.09375 193.847656 L 182.054688 193.847656 L 182.054688 129.804688 C 182.054688 126.488281 181.804688 123.234375 181.316406 120.054688 " fill-opacity="1" fill-rule="nonzero"/></g></svg>